<?xml version="1.0" standalone="no"?><!DOCTYPE svg PUBLIC "-//W3C//DTD SVG 1.1//EN" "http://www.w3.org/Graphics/SVG/1.1/DTD/svg11.dtd"><svg t="1749703231720" class="icon" viewBox="0 0 1024 1024" version="1.1" xmlns="http://www.w3.org/2000/svg" p-id="2816" xmlns:xlink="http://www.w3.org/1999/xlink" width="200" height="200"><path d="M955.733333 295.822222s-2.844444-2.844444 0 0c-2.844444-2.844444-2.844444-2.844444-2.844444-5.688889-2.844444-2.844444-2.844444-5.688889-5.688889-5.688889-2.844444-2.844444-8.533333-5.688889-11.377778-8.533333L526.222222 119.466667c-8.533333-5.688889-19.911111-5.688889-28.444444-2.844445L85.333333 273.066667c-5.688889 2.844444-8.533333 5.688889-14.222222 8.533333l-2.844444 2.844444c0 2.844444-2.844444 2.844444-2.844445 5.688889s-2.844444 2.844444-2.844444 5.688889c-5.688889 17.066667 2.844444 36.977778 19.911111 42.666667l110.933333 42.666667V597.333333c0 51.2 17.066667 99.555556 48.355556 139.377778 28.444444 39.822222 73.955556 65.422222 122.311111 68.266667h2.844444c2.844444 0 8.533333 2.844444 11.377778 2.844444l99.555556 5.688889H540.444444l96.711112-5.688889h14.222222c48.355556-2.844444 93.866667-28.444444 122.311111-68.266666 31.288889-39.822222 48.355556-88.177778 48.355555-139.377778v-204.8c0-2.844444 0-5.688889-2.844444-8.533334l113.777778-42.666666c19.911111-11.377778 28.444444-31.288889 22.755555-48.355556zM512 429.511111L187.733333 304.355556l321.422223-122.311112 324.266666 125.155556L512 429.511111z m247.466667 164.977778c0 36.977778-11.377778 71.111111-34.133334 99.555555-17.066667 25.6-45.511111 39.822222-73.955555 42.666667H634.311111l-96.711111 5.688889h-51.2l-102.4-2.844444h-2.844444c-5.688889 0-8.533333-2.844444-14.222223-2.844445-31.288889-2.844444-56.888889-19.911111-73.955555-42.666667-22.755556-28.444444-34.133333-62.577778-34.133334-99.555555v-190.577778l236.088889 91.022222c2.844444 2.844444 8.533333 2.844444 11.377778 2.844445h5.688889c2.844444 0 8.533333 0 11.377778-2.844445l230.4-88.177777v187.733333z" fill="#0A80FB" p-id="2817"></path><path d="M901.688889 733.866667c2.844444 0 2.844444 0 0 0 19.911111 0 34.133333-14.222222 34.133333-34.133334v-261.688889c0-17.066667-14.222222-34.133333-34.133333-34.133333-17.066667 0-34.133333 14.222222-34.133333 34.133333v261.688889c2.844444 19.911111 17.066667 34.133333 34.133333 34.133334zM961.422222 853.333333c0-31.288889-48.355556-96.711111-56.888889-96.711111-14.222222 0-56.888889 65.422222-56.888889 96.711111s25.6 56.888889 56.888889 56.888889c28.444444 0 56.888889-25.6 56.888889-56.888889z" fill="#FEA928" p-id="2818"></path></svg>