<?xml version="1.0" encoding="UTF-8"?>
<svg width="1920px" height="400px" viewBox="0 0 1920 400" version="1.1" xmlns="http://www.w3.org/2000/svg" xmlns:xlink="http://www.w3.org/1999/xlink">
    <title>Homepage Banner Illustration</title>
    <defs>
        <linearGradient x1="0%" y1="50%" x2="100%" y2="50%" id="linearGradient-1">
            <stop stop-color="#4A90E2" offset="0%"></stop>
            <stop stop-color="#5356EC" offset="100%"></stop>
        </linearGradient>
    </defs>
    <g id="Page-1" stroke="none" stroke-width="1" fill="none" fill-rule="evenodd">
        <g id="Homepage-Banner">
            <rect id="Rectangle" fill="url(#linearGradient-1)" x="0" y="0" width="1920" height="400"></rect>
            
            <!-- Main Illustration Group - Students and Abstract Shapes -->
            <g id="Illustration" transform="translate(1000.000000, 50.000000)">
                <!-- Abstract Shapes -->
                <circle id="Oval" fill="#F6B93B" opacity="0.6" cx="600" cy="50" r="80"></circle>
                <rect id="Rectangle-2" fill="#F6B93B" opacity="0.4" x="650" y="150" width="100" height="100" rx="20"></rect>
                <path d="M500,200 C550,250 550,300 500,350 C450,300 450,250 500,200 Z" id="Path-3" fill="#F6B93B" opacity="0.3"></path>

                <!-- Students -->
                <g id="Students" transform="translate(0.000000, 50.000000)">
                    <!-- Student 1 (left) -->
                    <rect id="Body-1" fill="#FFFFFF" x="0" y="50" width="40" height="100" rx="10"></rect>
                    <circle id="Head-1" fill="#FFFFFF" cx="20" cy="40" r="20"></circle>
                    <rect id="Arm-1" fill="#DDDDDD" transform="translate(30.000000, 80.000000) rotate(-15.000000) translate(-30.000000, -80.000000) " x="20" y="70" width="20" height="60" rx="5"></rect>
                    
                    <!-- Student 2 (middle) -->
                    <rect id="Body-2" fill="#FFFFFF" x="60" y="30" width="50" height="120" rx="10"></rect>
                    <circle id="Head-2" fill="#FFFFFF" cx="85" cy="20" r="25"></circle>
                    <rect id="Arm-2" fill="#DDDDDD" transform="translate(70.000000, 90.000000) rotate(15.000000) translate(-70.000000, -90.000000) " x="60" y="80" width="20" height="60" rx="5"></rect>

                    <!-- Student 3 (right) -->
                    <rect id="Body-3" fill="#FFFFFF" x="130" y="60" width="40" height="90" rx="10"></rect>
                    <circle id="Head-3" fill="#FFFFFF" cx="150" cy="50" r="20"></circle>
                    <rect id="Arm-3" fill="#DDDDDD" transform="translate(140.000000, 90.000000) rotate(-15.000000) translate(-140.000000, -90.000000) " x="130" y="80" width="20" height="60" rx="5"></rect>
                </g>
            </g>
        </g>
    </g>
</svg> 