<?xml version="1.0" encoding="UTF-8"?>
<svg width="200" height="200" viewBox="0 0 200 200" xmlns="http://www.w3.org/2000/svg">
  <!-- 背景圆形 -->
  <circle cx="100" cy="100" r="90" fill="#1a237e" opacity="0.1"/>
  
  <!-- 主图形：书本和人物剪影的组合 -->
  <g transform="translate(40, 40) scale(0.6)">
    <!-- 书本 -->
    <path d="M120,20 L180,20 L180,160 L120,160 Z" fill="#1a237e"/>
    <path d="M120,20 L180,20 L180,160 L120,160 Z" fill="none" stroke="#0d47a1" stroke-width="4"/>
    
    <!-- 书页线条 -->
    <line x1="130" y1="40" x2="170" y2="40" stroke="#0d47a1" stroke-width="2"/>
    <line x1="130" y1="60" x2="170" y2="60" stroke="#0d47a1" stroke-width="2"/>
    <line x1="130" y1="80" x2="170" y2="80" stroke="#0d47a1" stroke-width="2"/>
    
    <!-- 人物剪影 -->
    <path d="M100,40 C100,40 80,60 80,100 C80,140 100,160 100,160 C100,160 120,140 120,100 C120,60 100,40 100,40 Z" fill="#1a237e"/>
  </g>
  
  <!-- 装饰性圆点 -->
  <circle cx="50" cy="50" r="5" fill="#0d47a1"/>
  <circle cx="150" cy="50" r="5" fill="#0d47a1"/>
  <circle cx="50" cy="150" r="5" fill="#0d47a1"/>
  <circle cx="150" cy="150" r="5" fill="#0d47a1"/>
</svg> 